<?xml version="1.0" encoding="utf-8"?>
<!-- Generator: Adobe Illustrator 27.3.1, SVG Export Plug-In . SVG Version: 6.00 Build 0)  -->
<svg version="1.1" id="Layer_1" xmlns="http://www.w3.org/2000/svg" xmlns:xlink="http://www.w3.org/1999/xlink" x="0px" y="0px"
	 viewBox="0 0 208 150" style="enable-background:new 0 0 208 150;" xml:space="preserve">
<style type="text/css">
	.st0{fill:#F47A22;}
</style>
<g>
	<path class="st0" d="M207.8,93.3c-1-1.5-2-2.9-3-4.4c-7.3-11-14.7-22-22-32.9c-0.4-0.5-0.3-0.9,0.2-1.3
		c6.6-6.4,13.1-12.8,19.7-19.2c1-1,2-1.9,2.8-3c-0.2-0.2-0.5-0.1-0.8-0.1c-3.6,0-7.2,0-10.8-0.1c-1.1,0-1.8,0.3-2.6,1.1
		c-6.6,6.8-13.3,13.5-19.9,20.3c-1,1-2,2.1-3.1,3.1c-0.2,0.2-0.3,0.4-0.5,0.4c-0.3-0.1-0.1-0.4-0.2-0.7c0-0.1,0-0.1,0-0.2
		c0-15.4,0-30.8,0-46.2c0-0.8-0.2-1-1-1c-2.8,0-5.7,0-8.5,0c-0.8,0-1,0.3-1,1c0,27.6,0,55.3,0,82.9c0,0.8,0.2,1,1,1
		c2.8,0,5.6,0,8.4,0c0.8,0,1.1-0.2,1.1-1.1c0-7.4,0-14.8-0.1-22.3c0-0.7,0.2-1.3,0.7-1.8c2-1.9,4-3.8,5.9-5.7
		c0.6-0.6,0.9-0.5,1.3,0.1c2.5,4,5.1,8,7.7,11.9c3.9,6,7.8,12,11.7,18c0.3,0.4,0.6,0.7,1.1,0.7c3.8,0,7.6,0,11.4,0
		c0.2,0,0.4,0.1,0.5-0.1C208.1,93.7,207.9,93.5,207.8,93.3z"/>
	<path class="st0" d="M129.7,47.7c0.7,2.3,0.9,4.7,1,7.2c0,12.7,0,25.4,0,38.1c0,0.8,0.2,1,1,1c2.8,0,5.5,0,8.3,0
		c1.1,0,1.1,0,1.1-1.1c0-13.7,0-27.3,0-41c0-2.6-0.3-5.2-1-7.8c-1.3-4.6-3.9-8.1-8.2-10.3c-4-2-8.3-2.8-12.8-2.7
		c-6.8,0.2-12.5,2.7-16.9,8c-0.5,0.6-0.9,1.1-1.4,1.7c-0.1,0-0.1,0-0.2-0.1c0-0.3,0-0.6,0-0.9c0-2.2,0-4.3,0-6.5
		c0-0.6-0.2-0.9-0.8-0.9c-2.6,0-5.2,0-7.8,0c-0.6,0-0.8,0.3-0.8,0.8c0,0.8,0,1.7,0,2.5c0,19.1,0,38.2,0,57.3c0,0.8,0.3,1,1.1,1
		c2.7,0,5.4,0,8.1,0c1.3,0,1.3,0,1.3-1.2c0-11.3,0-22.6,0-33.9c0-2.3,0.3-4.6,0.8-6.9c1.3-6.3,5.4-9.8,11.4-11.4
		c3-0.8,6-0.5,8.9,0.4C126.2,41.9,128.6,44.2,129.7,47.7z"/>
	<path class="st0" d="M53.7,94c0.5,0,0.8-0.2,0.8-0.7c0-2.4,0-4.9,0-7.3c0-0.7-0.2-1-1-1c-13.2,0.2-26.5-0.4-39.7,0.5
		c-0.2,0-0.5,0.1-0.6-0.1c-0.1-0.3,0.2-0.4,0.3-0.5c2.6-2.9,5.2-5.8,7.8-8.8C31.5,64,41.8,52,52,40c0.4-0.4,0.5-0.9,0.5-1.5
		c0-1.7,0-3.3,0-5c0-1.1,0-1.2-1.1-1.2c-4.8,0-9.6,0-14.5,0c-11.2,0-22.3,0-33.5,0c-1.1,0-1.2,0-1.2,1.1c0,2.1,0,4.3,0,6.4
		c0,0.8,0.2,1,1,1c11.1-0.1,22.2,0.2,33.2-0.2c0.8,0,1.6-0.2,2.5,0c-0.5,0.6-1,1.1-1.4,1.6c-5.5,6.3-11,12.7-16.5,19
		C14.3,69.1,7.4,77,0.6,84.9C0.2,85.4,0,85.8,0,86.4c0,2.1,0,4.3,0,6.4C0,94,0,94,1.2,94c15.5,0,30.9,0,46.4,0
		C49.6,94,51.7,94,53.7,94z"/>
	<path class="st0" d="M75.3,92.9c0-19.8,0-39.6,0-59.4c0-1-0.1-1.1-1.1-1.1c-2.7,0-5.4,0-8.1,0c-1.2,0-1.2,0-1.2,1.2
		c0,9.8,0,19.7,0,29.5c0,9.9,0,19.9,0,29.8c0,0.8,0.2,1,1,1c2.8,0,5.7,0,8.5,0C75.1,94,75.3,93.7,75.3,92.9z"/>
	<path class="st0" d="M119.4,104.8c-0.9,0-1.8,0.1-2.7,0c-0.8-0.1-1,0.3-1,1c0,3.5,0,7,0,10.5c0,0.3,0.1,0.6-0.1,1
		c-0.7-0.7-1.3-1.3-2.1-1.9c-4.6-3.1-11.6-1-14.2,4.3c-1.7,3.6-2.1,7.4-1.3,11.3c0.5,2.7,1.6,5.1,3.6,7c3.1,3,8.2,3.8,11.7,1.7
		c1-0.6,1.8-1.5,2.7-2.4c0.1,0.8,0.1,1.6,0.1,2.4c0,0.5,0.1,0.7,0.6,0.7c0.8,0,1.5,0,2.3,0c1.1,0,1.1,0,1.1-1.1c0-10,0-20.1,0-30.1
		c0-1.2,0-2.3,0-3.5C120.2,105,120,104.8,119.4,104.8z M115.2,133.1c-0.9,2.5-2.7,4-5.4,4.3c-2.8,0.2-4.9-1-6.3-3.5
		c-1.1-2-1.4-4.1-1.4-5.9c0-2.3,0.2-4.2,0.9-6c1-2.6,3.2-4.2,5.7-4.3c2.8-0.1,5.3,1.5,6.3,4.2C116.5,125.5,116.6,129.3,115.2,133.1z
		"/>
	<path class="st0" d="M146.8,118.2c-3.2-3.6-7.2-4.7-11.8-3.9c-3.7,0.7-6.6,2.6-8.2,6.1c-1,2.2-1.5,4.6-1.4,7.1
		c0,1.2,0.1,2.5,0.4,3.8c0.6,2.9,1.8,5.6,4.3,7.3c3.9,2.7,8.1,3,12.5,1.3c2.7-1,4.7-2.8,5.8-5.5c1.3-3.2,1.6-6.6,1.1-10
		C149.1,122.2,148.4,120,146.8,118.2z M145.1,127.5c0,2.1-0.2,4.2-1.3,6.1c-1.5,2.8-4,4-7.1,3.7c-3.1-0.3-5.2-2.2-6.1-5.1
		c-1.1-3.4-1.1-6.9,0.3-10.3c1.2-2.8,3.5-4.3,6.5-4.3c3.1,0,5.3,1.5,6.7,4.3C144.9,123.6,145.1,125.5,145.1,127.5z"/>
	<path class="st0" d="M63.7,118.4c-3.2-3.8-7.3-5-12-4.1c-3.7,0.7-6.6,2.5-8.2,6c-1,2.3-1.5,4.6-1.4,7.1c0,1.3,0.1,2.6,0.4,3.9
		c0.6,3,1.8,5.6,4.4,7.4c3.7,2.5,7.7,2.8,11.8,1.4c3-1,5.2-2.9,6.4-5.9c1.1-2.8,1.4-5.7,1.2-8.6C66.1,123,65.4,120.5,63.7,118.4z
		 M59.8,134.8c-1.7,2.1-3.9,2.8-6.5,2.5c-2.7-0.3-4.6-1.7-5.7-4.2c-1.5-3.6-1.5-7.3-0.1-11c1.1-2.8,3.5-4.4,6.6-4.4
		c2.9-0.1,5.5,1.6,6.7,4.2c0.8,1.8,1,3.7,1,5.6C61.8,130.1,61.5,132.6,59.8,134.8z"/>
	<path class="st0" d="M172.6,115.6c-3-1.8-6.2-2-9.4-0.9c-1.8,0.6-3.1,1.8-4.3,3.3c-0.1-0.2-0.1-0.2-0.1-0.3c0-0.6,0-1.1,0-1.7
		c0-1.6,0.1-1.4-1.4-1.4c-0.5,0-1.1,0.1-1.6,0c-0.8-0.1-1,0.3-1,1c0,4.2,0,8.4,0,12.6c0,3.7,0,7.5,0,11.2c0,0.7,0.2,1.1,1,1
		c0.7-0.1,1.4,0,2.1,0c1.4,0,1.3,0.2,1.4-1.4c0.1-4.9-0.2-9.8,0.1-14.6c0.2-3.7,2.1-5.9,5.7-6.5c3.1-0.5,6.1,0.9,6.3,4.9
		c0,0.8,0.1,1.5,0.1,2.3c0,4.8,0,9.6,0,14.4c0,0.7,0.2,1,0.9,0.9c0.9-0.1,1.8,0,2.7,0c0.5,0,0.8-0.1,0.8-0.7c0-6,0-12-0.1-18.1
		C175.6,119.2,174.7,117,172.6,115.6z"/>
	<path class="st0" d="M92.4,121.5c-0.1-2.7-1.2-5.1-3.9-6.4c-2.8-1.4-5.7-1.5-8.6-0.5c-1.7,0.6-3.1,1.7-4.5,3c0-0.7,0-1.4,0-2.1
		c0.1-0.8-0.1-1.1-1-1c-0.6,0.1-1.3,0.1-2,0c-0.8-0.1-1,0.2-1,1c0,7.2,0,14.3,0,21.5c0,0.8,0,1.7,0,2.5c0,0.6,0.1,0.9,0.8,0.8
		c0.8-0.1,1.7-0.1,2.5,0c0.9,0.1,1.1-0.3,1.1-1.1c0-5-0.1-10,0.1-15c0.2-4.4,3.2-6.6,7.2-6.5c2.5,0.1,4.4,1.7,4.8,4.1
		c0.1,0.8,0.1,1.5,0.1,2.3c0,5.1,0,10.1,0,15.2c0,0.8,0.2,1.1,1,1c0.9-0.1,1.8,0,2.7,0c0.6,0,0.8-0.2,0.8-0.8
		C92.4,133.6,92.6,127.6,92.4,121.5z"/>
	<path class="st0" d="M36,104.8c-0.7,0.1-1.5,0-2.2,0c-1.2,0-1.2,0-1.2,1.2c0,10.6,0,21.2,0,31.8c0,0.6,0,1.1,0,1.7
		c0,0.7,0.2,0.9,0.9,0.9c0.8,0,1.7,0,2.5,0c1.1,0,1.1,0,1.1-1.1c0-5.5,0-11.1,0-16.6c0-5.7,0-11.3,0-17C37,105,36.7,104.7,36,104.8z
		"/>
	<path class="st0" d="M64.8,20.1c0,0.6,0.2,0.9,0.8,0.9c2.9,0,5.9,0,8.8,0c0.6,0,0.9-0.2,0.8-0.8c0-1.7,0-3.4,0-5.1c0-1.7,0-3.4,0-5
		c0-0.7-0.3-0.9-0.9-0.9c-2.9,0-5.8,0-8.7,0c-0.6,0-0.8,0.2-0.8,0.8C64.9,13.3,64.9,16.7,64.8,20.1z"/>
</g>
</svg>
