<svg id="Layer_1" data-name="Layer 1" xmlns="http://www.w3.org/2000/svg" viewBox="0 0 133.45 44.15"><defs><style>.cls-1{fill:#010202;}</style></defs><path d="M0,39H1.38l1.08,2.13h0L3.59,39H5L3.1,42.38v1.7H1.87v-1.7Z"/><path d="M11.3,41.54A3,3,0,0,1,11,43a2.22,2.22,0,0,1-.88.89,2.56,2.56,0,0,1-1.24.3,2.53,2.53,0,0,1-1.24-.3A2.28,2.28,0,0,1,6.74,43a3.31,3.31,0,0,1,0-2.84,2.22,2.22,0,0,1,.88-.89,2.53,2.53,0,0,1,1.24-.3,2.56,2.56,0,0,1,1.24.3,2.22,2.22,0,0,1,.88.89A3,3,0,0,1,11.3,41.54Zm-1.26,0a2.3,2.3,0,0,0-.14-.84,1.14,1.14,0,0,0-.41-.52A1.08,1.08,0,0,0,8.86,40a1.06,1.06,0,0,0-.63.17,1.08,1.08,0,0,0-.41.52,2.59,2.59,0,0,0,0,1.68,1.08,1.08,0,0,0,.41.52,1.14,1.14,0,0,0,.63.17,1.16,1.16,0,0,0,.63-.17,1.14,1.14,0,0,0,.41-.52A2.3,2.3,0,0,0,10,41.54Z"/><path d="M16.43,39h1.24v3.28a1.72,1.72,0,0,1-.28,1,1.8,1.8,0,0,1-.76.65,2.65,2.65,0,0,1-1.13.23,2.73,2.73,0,0,1-1.14-.23,1.77,1.77,0,0,1-.75-.65,1.72,1.72,0,0,1-.28-1V39h1.24v3.17a.91.91,0,0,0,.12.47A.82.82,0,0,0,15,43a1,1,0,0,0,.49.12A1,1,0,0,0,16,43a.76.76,0,0,0,.32-.32.91.91,0,0,0,.12-.47Z"/><path d="M19.75,44.08V39h2.12a2.33,2.33,0,0,1,1,.2,1.55,1.55,0,0,1,.65.59,1.72,1.72,0,0,1,.23.9,1.63,1.63,0,0,1-.24.9,1.46,1.46,0,0,1-.66.56,2.4,2.4,0,0,1-1,.19H20.49v-1H21.6a1.29,1.29,0,0,0,.47-.07.59.59,0,0,0,.29-.22.89.89,0,0,0,0-.78.66.66,0,0,0-.29-.23A1.28,1.28,0,0,0,21.6,40H21v4.09Zm2.89-2.32,1.27,2.32H22.56l-1.25-2.32Z"/><path d="M28.47,44.08V39h2.14a2.47,2.47,0,0,1,1,.16,1.28,1.28,0,0,1,.58.45,1.13,1.13,0,0,1,.2.67,1.08,1.08,0,0,1-.12.52,1.12,1.12,0,0,1-.34.38,1.33,1.33,0,0,1-.5.21v0a1.29,1.29,0,0,1,.58.16,1.21,1.21,0,0,1,.42.42,1.19,1.19,0,0,1,.16.64,1.3,1.3,0,0,1-.21.73,1.48,1.48,0,0,1-.61.51,2.28,2.28,0,0,1-1,.18Zm1.24-3h.68a.8.8,0,0,0,.36-.07.51.51,0,0,0,.34-.5.49.49,0,0,0-.18-.4.78.78,0,0,0-.5-.15h-.7Zm0,2h.76a1,1,0,0,0,.6-.15.52.52,0,0,0,.19-.42.62.62,0,0,0-.09-.34A.59.59,0,0,0,30.9,42a1,1,0,0,0-.4-.08h-.79Z"/><path d="M34.46,44.08V39H38v1H35.69v1h2.15v1H35.69v1H38v1Z"/><path d="M41.22,44.08H39.89L41.62,39h1.65L45,44.08H43.66l-1.2-3.8h0Zm-.18-2h2.78V43H41Z"/><path d="M50,39h1.24v3.28a1.79,1.79,0,0,1-.27,1,1.93,1.93,0,0,1-.76.65,2.94,2.94,0,0,1-2.28,0,1.83,1.83,0,0,1-.75-.65,1.79,1.79,0,0,1-.27-1V39h1.23v3.17a.91.91,0,0,0,.12.47.85.85,0,0,0,.33.32,1,1,0,0,0,.48.12,1,1,0,0,0,.49-.12.85.85,0,0,0,.33-.32,1,1,0,0,0,.11-.47Z"/><path d="M53.11,40V39h4.32v1H55.88v4.08H54.66V40Z"/><path d="M59.1,39h1.38l1.08,2.13h0L62.69,39h1.38L62.2,42.38v1.7H61v-1.7Z"/><path d="M75.44,39h1.39l1.08,2.13h0L79,39h1.38l-1.87,3.38v1.7H77.32v-1.7Z"/><path d="M86.75,41.54A2.84,2.84,0,0,1,86.42,43a2.16,2.16,0,0,1-.88.89,2.71,2.71,0,0,1-2.48,0,2.28,2.28,0,0,1-.88-.89,3.31,3.31,0,0,1,0-2.84,2.22,2.22,0,0,1,.88-.89,2.71,2.71,0,0,1,2.48,0,2.16,2.16,0,0,1,.88.89A2.84,2.84,0,0,1,86.75,41.54Zm-1.27,0a2.11,2.11,0,0,0-.14-.84,1,1,0,0,0-1-.69,1.1,1.1,0,0,0-.63.17,1.14,1.14,0,0,0-.41.52,2.59,2.59,0,0,0,0,1.68,1.14,1.14,0,0,0,.41.52,1.27,1.27,0,0,0,1.27,0,1.12,1.12,0,0,0,.4-.52A2.11,2.11,0,0,0,85.48,41.54Z"/><path d="M91.88,39h1.23v3.28a1.79,1.79,0,0,1-.27,1,1.86,1.86,0,0,1-.76.65,2.92,2.92,0,0,1-2.27,0,1.72,1.72,0,0,1-1-1.64V39H90v3.17a.91.91,0,0,0,.11.47.85.85,0,0,0,.33.32,1,1,0,0,0,.49.12,1,1,0,0,0,.48-.12.85.85,0,0,0,.33-.32.91.91,0,0,0,.12-.47Z"/><path d="M95.2,44.08V39h2.11a2.35,2.35,0,0,1,1,.2,1.59,1.59,0,0,1,.64.59,1.88,1.88,0,0,1,0,1.8,1.58,1.58,0,0,1-.66.56,2.48,2.48,0,0,1-1,.19H95.94v-1H97a1.26,1.26,0,0,0,.47-.07.59.59,0,0,0,.29-.22.81.81,0,0,0,0-.78.61.61,0,0,0-.29-.23A1.28,1.28,0,0,0,97,40h-.61v4.09Zm2.88-2.32,1.27,2.32H98l-1.25-2.32Z"/><path d="M103.75,40V39h4.32v1h-1.55v4.08H105.3V40Z"/><path d="M110,44.08V39h3.57v1h-2.33v1h2.15v1h-2.15v1h2.33v1Z"/><path d="M115.65,44.08V39h2.11a2.35,2.35,0,0,1,1,.2,1.53,1.53,0,0,1,.64.59,1.63,1.63,0,0,1,.23.9,1.72,1.72,0,0,1-.23.9,1.58,1.58,0,0,1-.66.56,2.43,2.43,0,0,1-1,.19h-1.34v-1h1.11a1.33,1.33,0,0,0,.47-.07.57.57,0,0,0,.28-.22.81.81,0,0,0,0-.78.57.57,0,0,0-.29-.23,1.22,1.22,0,0,0-.46-.08h-.61v4.09Zm2.88-2.32,1.28,2.32h-1.35l-1.25-2.32Z"/><path d="M121.62,39h1.53l1.3,3.14h.06l1.3-3.14h1.54v5.08h-1.21V41h0l-1.23,3.09h-.77l-1.23-3.11h0v3.14h-1.21Z"/><path d="M132.2,40.52a.58.58,0,0,0-.22-.42.91.91,0,0,0-.56-.16,1,1,0,0,0-.4.07.44.44,0,0,0-.24.17.41.41,0,0,0-.08.24.31.31,0,0,0,0,.2.75.75,0,0,0,.15.16,1.33,1.33,0,0,0,.24.11,2.07,2.07,0,0,0,.32.09l.44.1a3.1,3.1,0,0,1,.67.22,2,2,0,0,1,.49.32,1.32,1.32,0,0,1,.3.44,1.35,1.35,0,0,1,.1.55,1.39,1.39,0,0,1-.24.82,1.47,1.47,0,0,1-.7.53,2.91,2.91,0,0,1-1.09.19,3,3,0,0,1-1.12-.2,1.49,1.49,0,0,1-.74-.58,1.75,1.75,0,0,1-.28-1h1.19a.7.7,0,0,0,.46.66,1.32,1.32,0,0,0,.47.08,1.11,1.11,0,0,0,.43-.07.54.54,0,0,0,.27-.18.45.45,0,0,0,.1-.28.36.36,0,0,0-.09-.24.71.71,0,0,0-.27-.18,2.55,2.55,0,0,0-.46-.14l-.54-.13a2.24,2.24,0,0,1-1-.49,1.1,1.1,0,0,1-.38-.91,1.32,1.32,0,0,1,.25-.83,1.64,1.64,0,0,1,.71-.55,2.64,2.64,0,0,1,1-.2,2.57,2.57,0,0,1,1,.2,1.63,1.63,0,0,1,.68.56,1.47,1.47,0,0,1,.24.83Z"/><path d="M69.62,39.14a3.11,3.11,0,0,1-2.41,2.38,3.11,3.11,0,0,1,2.41,2.38A3.1,3.1,0,0,1,72,41.52,3.1,3.1,0,0,1,69.62,39.14Z"/><rect x="54.85" y="22.44" width="13.21" height="5.82"/><path d="M30.13,28.26V22.44H43.34v5.82Z"/><path d="M74.12,28.26V.07H80.3V28.26Zm5.41,0V22.44h13.2v5.82Z"/><rect x="24.73" y="0.07" width="6.18" height="28.19"/><rect x="30.4" y="0.07" width="12.94" height="5.82"/><rect x="24.73" y="0.07" width="6.18" height="28.19"/><rect x="30.4" y="0.07" width="12.94" height="5.82"/><rect x="49.44" y="0.07" width="6.18" height="28.19"/><rect x="55.12" y="0.07" width="12.94" height="5.82"/><rect x="30.13" y="11.54" width="12.32" height="5.25"/><rect x="5.46" y="11.54" width="12.32" height="5.25"/><rect x="30.13" y="11.54" width="12.32" height="5.25"/><rect x="54.85" y="11.54" width="12.32" height="5.25"/><rect x="0.01" y="0.07" width="6.18" height="28.19"/><rect x="5.69" y="0.07" width="12.94" height="5.82"/><rect x="0.01" y="0.07" width="6.18" height="28.19"/><rect x="5.69" y="0.07" width="12.94" height="5.82"/><path class="cls-1" d="M109.23,25.45H96v2.81h17.22V25.42l-12.72-12.7a5.81,5.81,0,0,1,0-8.21l.07-.06A5.72,5.72,0,0,1,103,3a5.61,5.61,0,0,1,1.54-.21,5.8,5.8,0,0,1,5.8,5.81h2.81A8.6,8.6,0,0,0,104.56,0a8.72,8.72,0,0,0-4,1,9.06,9.06,0,0,0-2.06,1.52c-.15.16-.3.33-.44.5a8.6,8.6,0,0,0,0,11.19Z"/><path class="cls-1" d="M129.5,25.45H116.22v2.81h17.22V25.42l-12.72-12.7a5.81,5.81,0,0,1,0-8.21l.07-.06a5.81,5.81,0,0,1,8.15.06,5.79,5.79,0,0,1,1.69,4.11h2.81A8.6,8.6,0,0,0,124.83,0a8.56,8.56,0,0,0-6.09,2.52c-.16.16-.31.33-.45.5a8.6,8.6,0,0,0,0,11.19Z"/></svg>